<?xml version="1.0" encoding="utf-8"?>
<!-- Generator: Adobe Illustrator 19.2.1, SVG Export Plug-In . SVG Version: 6.00 Build 0)  -->
<svg version="1.1" id="Layer_1" xmlns="http://www.w3.org/2000/svg" xmlns:xlink="http://www.w3.org/1999/xlink" x="0px" y="0px"
	 viewBox="0 0 60 60" style="enable-background:new 0 0 60 60;" xml:space="preserve">
<style type="text/css">
	.st0{fill:#FFFFFF;}
	.st1{fill:none;stroke:#000000;stroke-linecap:round;stroke-linejoin:round;stroke-miterlimit:10;}
	.st2{fill:#D1D1D1;}
	.st3{fill:none;stroke:#000000;stroke-width:1.5;stroke-linecap:round;stroke-linejoin:round;stroke-miterlimit:10;}
	.st4{fill:none;stroke:#000000;stroke-width:1.5;stroke-linejoin:round;stroke-miterlimit:10;}
</style>
<g>
	<path d="M50.031,4.075c-0.407-0.049-0.784,0.248-0.831,0.659l-5.681,49.335H16.63L10.949,4.734
		c-0.047-0.411-0.418-0.709-0.831-0.659C9.707,4.122,9.411,4.494,9.458,4.906l5.758,50c0.043,0.378,0.364,0.664,0.745,0.664h28.225
		c0.381,0,0.702-0.286,0.745-0.664l5.758-50C50.737,4.494,50.442,4.122,50.031,4.075z"/>
	<path d="M25.781,28.788c1.267,0.705,2.671,1.058,4.133,1.058c1.245,0,2.531-0.256,3.807-0.772c2.718-1.098,5.074-3.246,6.632-6.05
		c1.559-2.803,2.141-5.938,1.639-8.826c-0.513-2.947-2.087-5.289-4.434-6.593c-0.174-0.097-0.378-0.121-0.57-0.066
		s-0.354,0.183-0.45,0.357L25.49,27.769C25.289,28.13,25.419,28.587,25.781,28.788z M37.465,9.316
		c1.592,1.132,2.665,2.929,3.049,5.139c0.443,2.551-0.079,5.336-1.472,7.841c-1.392,2.504-3.481,4.418-5.883,5.388
		c-2.079,0.84-4.173,0.878-5.974,0.122L37.465,9.316z"/>
	<path d="M25.251,44.563c1.886,0.936,3.903,1.417,5.865,1.417c0.843,0,1.677-0.089,2.485-0.269c2.746-0.611,4.876-2.194,5.999-4.457
		c0.088-0.178,0.103-0.384,0.039-0.572s-0.199-0.344-0.377-0.433l-19.05-9.452c-0.372-0.185-0.821-0.033-1.005,0.339
		c-1.123,2.262-1.094,4.916,0.08,7.472C20.436,41.11,22.554,43.225,25.251,44.563z M20.257,32.495l17.626,8.745
		c-0.983,1.502-2.593,2.559-4.607,3.007c-2.355,0.523-4.967,0.159-7.357-1.027c-2.391-1.187-4.262-3.047-5.269-5.237
		C19.788,36.107,19.656,34.187,20.257,32.495z"/>
</g>
</svg>
