<?xml version="1.0" encoding="utf-8"?>
<!-- Generator: Adobe Illustrator 19.2.1, SVG Export Plug-In . SVG Version: 6.00 Build 0)  -->
<svg version="1.1" id="Layer_1" xmlns="http://www.w3.org/2000/svg" xmlns:xlink="http://www.w3.org/1999/xlink" x="0px" y="0px"
	 viewBox="0 0 60 60" style="enable-background:new 0 0 60 60;" xml:space="preserve">
<g>
	<path d="M15.9082031,4.5h7.1646118l3.5204468,7.7441406c0.121582,0.2675781,0.3886719,0.4394531,0.6826172,0.4394531h4.4643555
		c0.2939453,0,0.5605469-0.171875,0.6826172-0.4394531L35.9437256,4.5h7.1646729c0.4140625,0,0.75-0.3359375,0.75-0.75
		s-0.3359375-0.75-0.75-0.75h-7.6474609H23.5556641h-7.6474609c-0.4140625,0-0.75,0.3359375-0.75,0.75
		S15.4941406,4.5,15.9082031,4.5z M34.2958984,4.5l-3.0380859,6.6835938h-3.4990234L24.7207031,4.5H34.2958984z"/>
	<path d="M47.6464844,14.0200195c-0.4267578-0.0698242-0.7910156,0.222168-0.8525391,0.6318359L40.7421875,55.5H18.2192383
		l-6.0517578-40.8481445c-0.0610352-0.4101562-0.4443359-0.6972656-0.8515625-0.6318359
		c-0.409668,0.0605469-0.6928711,0.4418945-0.6318359,0.8515625l6.1464844,41.4887695
		C16.8847656,56.7275391,17.2006836,57,17.5722656,57h23.8173828c0.3720703,0,0.6875-0.2724609,0.7421875-0.6396484
		l6.1464844-41.4887695C48.3388672,14.4619141,48.0556641,14.0805664,47.6464844,14.0200195z"/>
	<path d="M19.8833008,21.4887695c1.7011719,0,3.3266602-0.5708008,4.6459961-1.6191406
		c1.3193359,1.0483398,2.9448242,1.6191406,4.6455078,1.6191406s3.3261719-0.5708008,4.6455078-1.6191406
		c1.3193359,1.0483398,2.9443359,1.6191406,4.6455078,1.6191406c2.078125,0,4.0800781-0.8759766,5.4921875-2.4033203
		c0.28125-0.3041992,0.2626953-0.7788086-0.0419922-1.0600586c-0.3007812-0.2802734-0.7783203-0.2631836-1.0595703,0.0415039
		c-1.1289062,1.2211914-2.7294922,1.921875-4.390625,1.921875c-1.5429688,0-3.0087891-0.5878906-4.1279297-1.6557617
		c-0.2890625-0.2763672-0.7460938-0.2763672-1.0351562,0c-1.1191406,1.0678711-2.5844727,1.6557617-4.1279297,1.6557617
		s-3.0092773-0.5878906-4.1274414-1.6557617c-0.2900391-0.2763672-0.7460938-0.2763672-1.0361328,0
		c-1.1181641,1.0678711-2.5844727,1.6557617-4.1279297,1.6557617c-1.6606445,0-3.2607422-0.7006836-4.3901367-1.921875
		c-0.28125-0.3041992-0.7553711-0.3227539-1.0600586-0.0415039c-0.3041992,0.28125-0.3227539,0.7558594-0.0415039,1.0600586
		C15.8041992,20.612793,17.8056641,21.4887695,19.8833008,21.4887695z"/>
</g>
</svg>
